<svg width="100" height="100" viewBox="0 0 100 100" fill="none" xmlns="http://www.w3.org/2000/svg">
<circle cx="50" cy="50" r="50" fill="#A55A99"/>
<path d="M18.296 66.6C17.944 66.6 17.64 66.472 17.384 66.216C17.128 65.96 17 65.656 17 65.304V34.296C17 33.944 17.128 33.64 17.384 33.384C17.64 33.128 17.944 33 18.296 33H42.488C42.84 33 43.144 33.128 43.4 33.384C43.656 33.64 43.784 33.944 43.784 34.296V41.592C43.784 41.944 43.656 42.248 43.4 42.504C43.144 42.76 42.84 42.888 42.488 42.888H28.76V46.44H41.528C41.88 46.44 42.184 46.568 42.44 46.824C42.696 47.08 42.824 47.384 42.824 47.736V54.984C42.824 55.336 42.696 55.64 42.44 55.896C42.184 56.152 41.88 56.28 41.528 56.28H28.76V65.304C28.76 65.656 28.632 65.96 28.376 66.216C28.12 66.472 27.816 66.6 27.464 66.6H18.296Z" fill="white"/>
<path d="M54.1273 66.6C53.7753 66.6 53.4712 66.472 53.2152 66.216C52.9592 65.96 52.8312 65.656 52.8312 65.304V34.296C52.8312 33.944 52.9592 33.64 53.2152 33.384C53.4712 33.128 53.7753 33 54.1273 33H61.7113C62.6073 33 63.2632 33.368 63.6792 34.104L71.7912 47.4V34.296C71.7912 33.944 71.9193 33.64 72.1753 33.384C72.4313 33.128 72.7352 33 73.0872 33H81.7753C82.1273 33 82.4312 33.128 82.6872 33.384C82.9432 33.64 83.0713 33.944 83.0713 34.296V65.304C83.0713 65.656 82.9432 65.96 82.6872 66.216C82.4312 66.472 82.1273 66.6 81.7753 66.6H74.1912C73.6473 66.6 73.2313 66.488 72.9433 66.264C72.6553 66.04 72.4153 65.784 72.2233 65.496L64.1113 53.256V65.304C64.1113 65.656 63.9832 65.96 63.7272 66.216C63.4712 66.472 63.1673 66.6 62.8153 66.6H54.1273Z" fill="white"/>
</svg>
