<svg width="100" height="100" viewBox="0 0 100 100" fill="none" xmlns="http://www.w3.org/2000/svg">
<circle cx="50" cy="50" r="50" fill="#A55A99"/>
<path d="M16.8642 58C16.6882 58 16.5442 57.952 16.4322 57.856C16.3202 57.744 16.2642 57.6 16.2642 57.424V41.8C16.2642 41.624 16.3202 41.48 16.4322 41.368C16.5442 41.256 16.6882 41.2 16.8642 41.2H18.7602C19.0962 41.2 19.3362 41.352 19.4802 41.656L24.1122 50.296L28.7922 41.656C28.9522 41.352 29.1922 41.2 29.5122 41.2H31.3842C31.5602 41.2 31.7042 41.256 31.8162 41.368C31.9282 41.48 31.9842 41.624 31.9842 41.8V57.424C31.9842 57.6 31.9282 57.744 31.8162 57.856C31.7042 57.952 31.5602 58 31.3842 58H29.3682C29.2082 58 29.0722 57.944 28.9602 57.832C28.8482 57.72 28.7922 57.584 28.7922 57.424V47.032L25.4322 53.44C25.2242 53.792 24.9522 53.968 24.6162 53.968H23.6322C23.2962 53.968 23.0242 53.792 22.8162 53.44L19.4562 47.032V57.424C19.4562 57.584 19.4002 57.72 19.2882 57.832C19.1922 57.944 19.0562 58 18.8802 58H16.8642ZM37.0853 58C36.9573 58 36.8373 57.952 36.7253 57.856C36.6293 57.76 36.5813 57.64 36.5813 57.496L36.6293 57.28L42.4133 41.8C42.5253 41.4 42.8053 41.2 43.2533 41.2H45.8693C46.2853 41.2 46.5653 41.4 46.7093 41.8L52.4933 57.28C52.5093 57.328 52.5173 57.4 52.5173 57.496C52.5173 57.64 52.4693 57.76 52.3733 57.856C52.2773 57.952 52.1653 58 52.0373 58H49.9493C49.7413 58 49.5813 57.952 49.4693 57.856C49.3573 57.76 49.2853 57.656 49.2533 57.544L48.1253 54.616H40.9973L39.8693 57.544C39.7413 57.848 39.5093 58 39.1733 58H37.0853ZM47.2853 51.856L44.5493 44.44L41.8373 51.856H47.2853ZM60.3218 58C60.1618 58 60.0258 57.944 59.9138 57.832C59.8018 57.72 59.7458 57.584 59.7458 57.424V52L54.0818 41.968C54.0338 41.888 54.0098 41.8 54.0098 41.704C54.0098 41.56 54.0578 41.44 54.1538 41.344C54.2498 41.248 54.3618 41.2 54.4898 41.2H56.6258C56.8018 41.2 56.9458 41.248 57.0578 41.344C57.1858 41.44 57.2818 41.544 57.3458 41.656L61.4258 48.64L65.4818 41.656C65.6738 41.352 65.9218 41.2 66.2258 41.2H68.3378C68.4818 41.2 68.6018 41.248 68.6978 41.344C68.7938 41.44 68.8418 41.56 68.8418 41.704C68.8418 41.8 68.8178 41.888 68.7698 41.968L63.1058 52V57.424C63.1058 57.584 63.0498 57.72 62.9378 57.832C62.8258 57.944 62.6818 58 62.5058 58H60.3218ZM70.8072 58C70.6792 58 70.5592 57.952 70.4472 57.856C70.3512 57.76 70.3032 57.64 70.3032 57.496L70.3512 57.28L76.1352 41.8C76.2472 41.4 76.5272 41.2 76.9752 41.2H79.5912C80.0072 41.2 80.2872 41.4 80.4312 41.8L86.2152 57.28C86.2312 57.328 86.2392 57.4 86.2392 57.496C86.2392 57.64 86.1912 57.76 86.0952 57.856C85.9992 57.952 85.8872 58 85.7592 58H83.6712C83.4632 58 83.3032 57.952 83.1912 57.856C83.0792 57.76 83.0072 57.656 82.9752 57.544L81.8472 54.616H74.7192L73.5912 57.544C73.4632 57.848 73.2312 58 72.8952 58H70.8072ZM81.0072 51.856L78.2712 44.44L75.5592 51.856H81.0072Z" fill="white"/>
</svg>
